<?xml version="1.0" encoding="UTF-8" standalone="no"?>
<!-- Created with Inkscape (http://www.inkscape.org/) -->

<svg
   xmlns:dc="http://purl.org/dc/elements/1.1/"
   xmlns:cc="http://creativecommons.org/ns#"
   xmlns:rdf="http://www.w3.org/1999/02/22-rdf-syntax-ns#"
   xmlns:svg="http://www.w3.org/2000/svg"
   xmlns="http://www.w3.org/2000/svg"
   version="1.1"
   width="988.04999"
   height="354.64999"
   id="svg2"
   xml:space="preserve"><metadata
     id="metadata8"><rdf:RDF><cc:Work
         rdf:about=""><dc:format>image/svg+xml</dc:format><dc:type
           rdf:resource="http://purl.org/dc/dcmitype/StillImage" /><dc:title></dc:title></cc:Work></rdf:RDF></metadata><defs
     id="defs6" /><g
     transform="matrix(1.25,0,0,-1.25,0,354.65)"
     id="g10"><g
       transform="scale(0.1,0.1)"
       id="g12"><path
         d="m 277.793,2837.21 c 0,0 -277.793,0 -277.793,-277.78 L 0,757.891 c 0,0 0,-277.84 277.793,-277.84 l 1852.267,0 c 0,0 277.78,0 277.78,277.84 l 0,1801.539 c 0,0 0,277.78 -277.78,277.78 l -1852.267,0"
         id="path14"
         style="fill:#69ceea;fill-opacity:1;fill-rule:nonzero;stroke:none" /><path
         d="m 2827.47,250.359 -21.95,39.852 c -21.95,-14.66 -52.02,-34.16 -99.99,-34.16 -58.52,0 -88.6,39.019 -96.74,97.539 l 188.57,31.691 24.4,30.918 c -17.86,77.192 -55.27,132.461 -136.55,132.461 -88.6,0 -136.57,-78.012 -136.57,-177.191 0,-85.34 57.72,-162.559 150.39,-162.559 64.21,0 104.87,25.211 128.44,41.449 m -69.1,175.582 -153.64,-31.691 c 0,62.59 31.71,111.34 82.1,111.34 47.96,0 61.79,-40.641 71.54,-79.649 m 395.86,103.25 -46.34,20.289 -92.65,-129.23 -83.76,130.078 -52.82,-24.398 101.6,-145.52 -115.41,-151.18 47.96,-21.14 97.53,133.332 87.8,-133.332 54.46,21.961 -107.28,153.621 108.91,145.519 z M 3507,397.5 c 0,79.648 -47.96,151.16 -120.31,151.16 -39,0 -76.39,-23.551 -106.48,-42.25 l 0,30.899 -54.47,0 0,-522.6488 54.47,0 0,203.9878 c 22.76,-4.867 48.77,-9.738 67.48,-9.738 95.91,0 159.31,78.039 159.31,188.59 m -58.51,-12.219 c 0,-63.383 -37.41,-130.019 -98.37,-130.019 -24.39,0 -47.15,8.117 -69.91,16.238 l 0,188.559 c 16.26,10.589 67.48,41.492 89.43,41.492 60.96,0 78.85,-60.192 78.85,-116.27 m 195.89,353.61 -56.1,0 0,-521.832 56.1,0 0,521.832 z M 4036.15,380.41 c 0,85.34 -66.64,169.07 -156.04,169.07 -89.42,0 -154.46,-82.082 -154.46,-171.5 0,-93.468 64.21,-169.07 154.46,-169.07 90.2,0 156.04,81.301 156.04,171.5 m -59.33,0 c 0,-67.461 -35.77,-126.82 -94.28,-126.82 -57.71,0 -97.55,55.32 -97.55,124.39 0,68.301 34.16,126 92.68,126 57.7,0 99.15,-58.519 99.15,-123.57 m 308.87,161.77 c 0,0 -14.63,4.039 -25.18,4.039 -33.33,0 -67.48,-26 -87.8,-43.059 l 0,34.149 -55.29,0 0,-321.098 56.11,0 0,240.629 c 23.57,14.629 48.76,38.992 78.01,38.992 10.58,0 20.32,-0.82 26,-2.441 l 8.15,48.789 z m 143.06,-4.871 -55.28,0 0,-320.278 55.28,0 0,320.278 z m 14.61,136.55 c 0,22.75 -18.65,42.282 -42.23,42.282 -23.59,0 -42.29,-19.532 -42.29,-42.282 0,-23.589 18.7,-42.269 42.29,-42.269 23.58,0 42.23,18.68 42.23,42.269 m 382.04,-456.828 0,222.719 c 0,69.91 -33.3,108.91 -82.9,108.91 -49.61,0 -90.23,-28.441 -131.69,-52.828 l 0,41.477 -53.65,0 0,-320.278 56.08,0 0,232.469 c 23.6,13.809 78.04,49.609 105.69,49.609 34.15,0 50.39,-21.14 50.39,-69.918 l 0,-212.16 56.08,0 z m 392.61,-87.769 c 0,50.386 -45.51,82.898 -95.93,98.328 l -137.37,41.48 98.38,39.84 c 55.29,21.922 92.64,56.899 92.64,125.969 0,25.18 -8.09,42.269 -18.7,55.262 l 55.28,0 0,47.168 -105.68,0 c -14.63,8.089 -34.12,11.351 -52.82,11.351 -67.46,0 -122.76,-48.75 -122.76,-115.422 0,-60.949 34.96,-95.886 81.33,-114.59 l -73.99,-32.519 0,-45.527 58.51,-21.133 -25.21,-8.949 C 4922.15,192.641 4882.3,156.09 4882.3,104.871 4882.3,31.6914 4959.52,0 5028.62,0 c 86.99,0 189.39,39 189.39,129.262 m -55.27,-5.692 c 0,-46.3512 -64.22,-82.0817 -130.86,-82.0817 -49.58,0 -97.54,25.1523 -97.54,67.4337 0,31.719 26.79,56.887 69.07,75.598 l 38.23,17.089 39.81,-12.218 c 28.46,-8.922 81.29,-25.192 81.29,-65.821 m -43.88,309.668 c 0.82,-47.136 -25.22,-80.468 -64.26,-80.468 -41.43,0 -66.61,31.718 -67.43,78.851 -0.82,47.141 23.57,77.219 65.82,77.219 42.29,0 65.05,-28.442 65.87,-75.602 m 641.32,-216.207 0,223.539 c 0,69.91 -34.95,108.91 -84.55,108.91 -48.78,0 -89.42,-29.261 -130.04,-52.808 l 0,242.219 -53.66,0 0,-521.86 56.06,0 0,233.297 c 23.57,13.801 78.04,49.582 105.68,49.582 34.15,0 50.39,-21.148 50.39,-69.898 l 0,-212.981 56.12,0 z m 391.75,163.379 c 0,85.34 -66.64,169.07 -156.05,169.07 -89.42,0 -154.43,-82.082 -154.43,-171.5 0,-93.468 64.19,-169.07 154.43,-169.07 90.23,0 156.05,81.301 156.05,171.5 m -59.33,0 c 0,-67.461 -35.74,-126.82 -94.26,-126.82 -57.72,0 -97.56,55.32 -97.56,124.39 0,68.301 34.12,126 92.67,126 57.72,0 99.15,-58.519 99.15,-123.57 m 308.86,161.77 c 0,0 -14.62,4.039 -25.17,4.039 -33.34,0 -67.49,-26 -87.8,-43.059 l 0,34.149 -55.27,0 0,-321.098 56.09,0 0,240.629 c 23.56,14.629 48.75,38.992 78,38.992 10.59,0 20.35,-0.82 26.04,-2.441 l 8.11,48.789 z m 143.1,-4.871 -55.29,0 0,-320.278 55.29,0 0,320.278 z m 14.6,136.55 c 0,22.75 -18.7,42.282 -42.25,42.282 -23.59,0 -42.3,-19.532 -42.3,-42.282 0,-23.589 18.71,-42.269 42.3,-42.269 23.55,0 42.25,18.68 42.25,42.269 m 338.96,-456.828 0,46.348 -191.03,0 184.51,238.172 0,35.758 -240.59,0 0,-47.168 169.09,0 -183.72,-240.602 0,-32.508 261.74,0 z m 359.29,163.379 c 0,85.34 -66.67,169.07 -156.08,169.07 -89.42,0 -154.44,-82.082 -154.44,-171.5 0,-93.468 64.2,-169.07 154.44,-169.07 90.21,0 156.08,81.301 156.08,171.5 m -59.33,0 c 0,-67.461 -35.79,-126.82 -94.31,-126.82 -57.73,0 -97.54,55.32 -97.54,124.39 0,68.301 34.12,126 92.67,126 57.69,0 99.18,-58.519 99.18,-123.57 m 408.83,-163.379 0,222.719 c 0,69.91 -33.36,108.91 -82.93,108.91 -49.57,0 -90.2,-28.441 -131.66,-52.828 l 0,41.477 -53.65,0 0,-320.278 56.12,0 0,232.469 c 23.51,13.809 78,49.609 105.65,49.609 34.13,0 50.37,-21.14 50.37,-69.918 l 0,-212.16 56.1,0 z m 297.48,83.719 c 0,109.738 -147.91,103.23 -147.91,169.109 0,21.102 24.4,35.731 46.3,35.731 34.15,0 58.55,-14.629 73.18,-22.75 l 20.31,42.269 c -25.22,12.2 -50.39,24.371 -91.82,24.371 -48.79,0 -101.61,-28.441 -101.61,-85.351 0,-108.109 144.65,-95.09 144.65,-168.238 0,-24.391 -26.8,-40.629 -52.01,-40.629 -41.46,0 -68.25,16.238 -84.54,25.968 L 7689,236.559 c 16.24,-8.969 56.06,-26.829 105.66,-26.829 69.13,0 109.73,41.43 109.73,91.02"
         id="path16"
         style="fill:#555a4d;fill-opacity:1;fill-rule:nonzero;stroke:none" /><path
         d="m 906.699,1166.27 c 0,185.15 -158.23,302.96 -341.679,302.96 -16.856,0 -23.582,0 -35.372,-1.67 l 33.664,207.02 304.668,0 0,127.94 -429.218,0 -74.067,-467.92 c 50.5,8.39 92.578,10.09 139.707,10.09 158.227,0 237.356,-67.32 237.356,-190.2 0,-144.76 -89.207,-200.299 -195.274,-200.299 -70.672,0 -134.66,21.879 -181.789,48.809 l -65.64,-119.52 c 60.613,-38.718 161.582,-62.261 249.109,-62.261 195.266,0 358.535,136.332 358.535,345.051 m 705.261,419.11 c 0,168.3 -143.07,247.45 -289.52,247.45 -92.57,0 -186.83,-38.73 -262.58,-95.96 l 70.7,-95.92 c 72.38,43.75 131.29,72.38 201.99,72.38 75.74,0 124.55,-47.16 124.55,-122.91 0,-79.11 -176.74,-196.92 -242.37,-249.1 l -151.48,-122.88 0,-79.1 545.36,0 0,112.76 -314.78,0 153.19,109.44 c 62.27,42.05 164.94,131.27 164.94,223.84"
         id="path18"
         style="fill:#ffffff;fill-opacity:1;fill-rule:nonzero;stroke:none" /><path
         d="m 2406.44,1139.34 0,456.14 c 0,143.06 -74.07,230.59 -190.21,230.59 -94.27,0 -175.06,-55.54 -254.18,-100.98 l 0,77.43 -146.44,0 0,-663.18 151.5,0 0,476.35 c 43.77,23.54 151.48,82.47 200.29,82.47 57.24,0 87.53,-30.31 87.53,-122.89 l 0,-435.93 151.51,0"
         id="path20"
         style="fill:#555a4d;fill-opacity:1;fill-rule:nonzero;stroke:none" /><path
         d="m 3212.69,1479.35 c 0,185.15 -153.18,348.42 -341.7,348.42 -191.89,0 -336.64,-166.64 -336.64,-353.48 0,-191.89 141.39,-351.8 336.64,-351.8 195.26,0 341.7,166.66 341.7,356.86 m -158.23,-8.42 c 0,-101.01 -53.86,-232.28 -173.37,-232.28 -131.29,0 -188.52,127.92 -188.52,242.37 0,101 52.19,230.58 171.69,230.58 127.93,0 190.2,-127.91 190.2,-240.67"
         id="path22"
         style="fill:#69ceea;fill-opacity:1;fill-rule:nonzero;stroke:none" /><path
         d="m 3746.26,1807.55 c 0,0 -31.97,15.16 -72.37,15.16 -72.39,0 -143.08,-55.54 -180.11,-89.2 l 0,69.01 -149.79,0 0,-664.88 151.48,0 0,479.72 c 42.08,28.62 99.31,74.07 151.48,74.07 28.62,0 60.59,-10.12 67.34,-11.79 l 31.97,127.91 z m 580.69,-622.77 -40.41,106.04 c -60.59,-28.6 -102.67,-43.75 -149.79,-43.75 -62.26,0 -87.53,31.97 -87.53,119.5 l 0,324.86 217.14,0 0,111.09 -217.14,0 0,186.82 -259.22,-255.83 0,-42.08 107.74,0 0,-360.23 c 0,-137.99 97.61,-208.71 200.27,-208.71 94.28,0 161.6,26.94 228.94,62.29 m 733.88,-45.44 0,457.83 c 0,143.07 -75.77,230.6 -191.89,230.6 -92.59,0 -173.36,-57.24 -252.49,-102.68 l 0,494.86 -146.46,0 0,-1080.61 151.53,0 0,476.35 c 43.75,25.26 151.47,84.16 200.28,84.16 57.22,0 87.52,-32 87.52,-124.58 l 0,-435.93 151.51,0"
         id="path24"
         style="fill:#555a4d;fill-opacity:1;fill-rule:nonzero;stroke:none" /></g></g></svg>